# xmcd CD database file
#
# Track frame offsets:
#	150
#	26185
#	58532
#	86927
#	111502
#	144225
#	168885
#	190645
#	216357
#	244030
#	270055
#	295092
#	309115
#
# Disc length: 4457 seconds
#
# Revision: 0
# Processed by: cddbd v1.5.1PL0 Copyright (c) Steve Scherf et al.
# Submitted via: CDex 1.51
#
DISCID=b011670d
DTITLE=Lee Morgan - Sonic Boom
DYEAR=1967
DGENRE=Jazz
TTITLE0=Sneaky Pete
TTITLE1=The Mercenary
TTITLE2=Sonic Boom
TTITLE3=Fathead
TTITLE4=I'll Never Be The Same
TTITLE5=Mumbo Jumbo
TTITLE6=Free Flow
TTITLE7=Stormy Weather
TTITLE8=Mr. Johnson
TTITLE9=The Stroker
TTITLE10=Uncle Rough
TTITLE11=Claw-Til-Da
TTITLE12=Untitled Boogaloo
EXTD=YEAR: 1967
EXTT0=
EXTT1=
EXTT2=
EXTT3=
EXTT4=
EXTT5=
EXTT6=
EXTT7=
EXTT8=
EXTT9=
EXTT10=
EXTT11=
EXTT12=
PLAYORDER=
